<?xml version="1.0" standalone="no"?>
<!DOCTYPE svg PUBLIC "-//W3C//DTD SVG 20010904//EN"
 "http://www.w3.org/TR/2001/REC-SVG-20010904/DTD/svg10.dtd">
<svg version="1.0" xmlns="http://www.w3.org/2000/svg"
 width="1000.000000pt" height="1000.000000pt" viewBox="0 0 1000.000000 1000.000000"
 preserveAspectRatio="xMidYMid meet">
<metadata>
Created by potrace 1.11, written by Peter Selinger 2001-2013
</metadata>
<g transform="translate(0.000000,1000.000000) scale(0.100000,-0.100000)"
fill="#000000" stroke="none">
<path d="M3025 8455 l-2020 -1144 0 -2301 0 -2301 2023 -1146 2022 -1145 2023
1145 2022 1145 0 2302 0 2301 -2020 1144 c-1111 630 -2022 1144 -2025 1144 -3
0 -914 -515 -2025 -1144z m4001 -92 l1974 -1118 0 -2235 0 -2235 -1975 -1119
-1975 -1118 -1975 1119 -1975 1118 0 2235 0 2235 1973 1117 c1084 614 1974
1117 1976 1118 2 0 891 -503 1977 -1117z"/>
<path d="M3933 7269 c-52 -26 -89 -67 -103 -117 -7 -25 -10 -689 -10 -2028 0
-1978 0 -1990 20 -2012 33 -35 94 -46 255 -47 169 0 234 13 265 53 20 24 20
46 20 935 l0 910 263 -6 c221 -4 274 -8 339 -25 156 -42 278 -120 388 -249
111 -130 186 -292 457 -988 149 -382 222 -558 240 -577 43 -45 83 -53 258 -53
192 0 249 8 281 40 31 31 31 75 0 169 -46 137 -467 1161 -531 1291 -35 72 -87
166 -116 210 -72 110 -215 251 -310 307 l-77 44 62 23 c224 86 426 230 548
391 252 331 264 895 27 1249 -132 198 -332 339 -595 420 -238 74 -333 81
-1054 81 -574 0 -586 0 -627 -21z m1303 -467 c275 -60 438 -193 510 -416 35
-106 45 -320 20 -436 -46 -221 -206 -395 -436 -476 -148 -51 -190 -56 -582
-61 l-368 -5 0 712 0 712 383 -5 c331 -4 394 -8 473 -25z"/>
</g>
</svg>
